<?xml version="1.0" standalone="no"?>
<!DOCTYPE svg PUBLIC "-//W3C//DTD SVG 20010904//EN"
 "http://www.w3.org/TR/2001/REC-SVG-20010904/DTD/svg10.dtd">
<svg version="1.0" xmlns="http://www.w3.org/2000/svg"
 width="500.000000pt" height="500.000000pt" viewBox="0 0 500.000000 500.000000"
 preserveAspectRatio="xMidYMid meet">

<g transform="translate(0.000000,500.000000) scale(0.100000,-0.100000)"
fill="#000000" stroke="none">
<path d="M2330 4990 c-307 -17 -575 -86 -895 -232 -129 -59 -140 -65 -307
-174 -290 -190 -522 -423 -720 -723 -145 -220 -267 -496 -329 -745 -59 -233
-71 -358 -66 -661 5 -289 13 -362 67 -576 61 -244 184 -522 328 -740 199 -302
416 -519 724 -725 121 -81 300 -177 418 -222 30 -12 91 -35 135 -52 108 -42
292 -88 450 -111 185 -27 548 -27 730 0 276 41 490 110 765 246 375 185 716
491 954 853 104 159 116 181 176 311 112 247 173 448 212 701 29 190 29 528 0
720 -42 275 -105 476 -238 755 -134 280 -381 590 -647 812 -269 224 -635 410
-971 494 -240 61 -510 84 -786 69z m437 -545 c138 -19 218 -39 343 -81 412
-141 721 -367 977 -714 123 -166 203 -325 281 -556 70 -205 87 -320 87 -594 0
-203 -3 -251 -23 -354 -26 -136 -84 -314 -149 -461 -188 -419 -547 -780 -961
-965 -292 -131 -516 -180 -822 -180 -306 0 -533 50 -824 182 -413 186 -768
541 -954 954 -132 292 -182 517 -182 824 0 307 50 532 182 825 187 415 539
766 957 955 124 56 314 122 406 140 200 41 494 52 682 25z"/>
<path d="M3683 3329 c-32 -9 -155 -89 -518 -338 -104 -71 -260 -177 -345 -234
-85 -58 -247 -169 -360 -246 -113 -77 -291 -199 -397 -270 l-192 -130 -133
195 c-73 108 -162 239 -198 293 -102 154 -117 170 -184 202 -67 32 -155 39
-228 19 -56 -16 -117 -68 -152 -130 -27 -49 -31 -64 -31 -135 0 -93 8 -112
119 -274 179 -262 332 -488 421 -618 120 -179 171 -220 285 -230 88 -8 148 15
295 116 72 49 207 141 300 205 94 64 256 174 360 245 105 71 273 186 375 255
102 69 284 194 405 277 121 82 277 188 346 235 99 65 134 95 157 131 102 160
43 360 -125 423 -57 21 -144 25 -200 9z"/>
</g>
</svg>
