<?xml version="1.0" standalone="no"?>
<!DOCTYPE svg PUBLIC "-//W3C//DTD SVG 20010904//EN"
 "http://www.w3.org/TR/2001/REC-SVG-20010904/DTD/svg10.dtd">
<svg version="1.0" xmlns="http://www.w3.org/2000/svg"
 width="980.000000pt" height="982.000000pt" viewBox="0 0 980.000000 982.000000"
 preserveAspectRatio="xMidYMid meet">

<g transform="translate(0.000000,982.000000) scale(0.100000,-0.100000)"
fill="#000000" stroke="none">
<path d="M8655 9809 c-229 -29 -422 -207 -470 -434 -27 -127 -12 -238 46 -361
30 -62 65 -101 349 -387 173 -175 338 -333 365 -351 178 -117 426 -119 601 -4
253 169 329 515 165 764 -23 35 -169 188 -357 375 -284 281 -326 320 -384 347
-102 47 -210 65 -315 51z"/>
<path d="M5932 7247 l-1922 -1922 653 -653 652 -652 1925 1925 1925 1925 -650
650 c-357 357 -652 650 -655 650 -3 0 -870 -865 -1928 -1923z"/>
<path d="M945 8710 c-389 -51 -734 -325 -872 -690 -75 -199 -68 150 -68 -3670
l0 -3425 28 -100 c87 -319 298 -573 594 -716 118 -56 244 -88 403 -100 89 -6
1267 -9 3430 -6 3051 3 3301 4 3370 20 424 96 727 377 847 788 l28 94 3 2003
2 2002 -540 0 -540 0 -2 -1907 -3 -1908 -3267 -3 -3268 -2 0 3270 0 3270 1905
0 1905 0 0 545 0 545 -1947 -1 c-1072 -1 -1975 -5 -2008 -9z"/>
<path d="M3905 5106 c-143 -45 -243 -163 -264 -309 -5 -35 -91 -311 -191 -612
-204 -612 -199 -590 -143 -704 51 -105 148 -179 268 -203 l53 -10 543 181
c299 100 577 189 618 196 90 18 145 43 205 96 55 48 104 143 113 218 l6 53
-554 554 c-606 607 -561 569 -654 540z"/>
</g>
</svg>
