<?xml version="1.0" standalone="no"?>
<!DOCTYPE svg PUBLIC "-//W3C//DTD SVG 20010904//EN"
 "http://www.w3.org/TR/2001/REC-SVG-20010904/DTD/svg10.dtd">
<svg version="1.0" xmlns="http://www.w3.org/2000/svg"
 width="501.000000pt" height="498.000000pt" viewBox="0 0 501.000000 498.000000"
 preserveAspectRatio="xMidYMid meet">
<metadata>
Created by potrace 1.16, written by Peter Selinger 2001-2019
</metadata>
<g transform="translate(0.000000,498.000000) scale(0.100000,-0.100000)"
fill="#000000" stroke="none">
<path d="M2390 4950 c0 -29 -1 -30 -47 -30 -114 -1 -420 -59 -552 -105 -312
-110 -520 -217 -725 -374 -54 -42 -118 -90 -140 -107 -64 -48 -298 -299 -367
-394 -257 -351 -406 -700 -476 -1117 -25 -149 -25 -523 0 -668 31 -176 68
-316 125 -470 127 -341 298 -614 553 -879 68 -71 142 -143 165 -160 23 -17 86
-65 140 -107 129 -99 278 -188 423 -253 124 -56 125 -56 271 -109 152 -56 455
-116 583 -117 46 0 47 -1 47 -30 l0 -30 115 0 115 0 0 30 c0 29 1 30 48 30 67
0 234 25 367 55 154 35 299 86 491 173 479 216 925 652 1164 1136 117 238 193
474 237 733 25 149 25 523 0 668 -48 274 -129 519 -252 760 -160 313 -411 613
-692 827 -231 176 -424 280 -703 381 -182 66 -475 126 -612 127 -47 0 -48 1
-48 30 l0 30 -115 0 -115 0 0 -30z m540 -370 c478 -85 855 -303 1193 -688 197
-225 346 -490 426 -760 140 -471 115 -1055 -62 -1482 -43 -106 -138 -279 -209
-385 -71 -104 -222 -279 -311 -361 -67 -60 -220 -177 -277 -211 -19 -11 -72
-43 -118 -71 -174 -106 -481 -204 -737 -236 -170 -21 -491 -21 -657 0 -234 29
-542 123 -708 216 -107 60 -306 197 -387 267 -266 229 -505 589 -607 917 -79
251 -100 403 -100 704 0 300 22 454 99 700 98 314 320 661 568 886 67 60 220
177 277 211 19 11 72 43 118 71 156 95 443 193 667 226 157 24 155 24 435 21
223 -2 285 -6 390 -25z"/>
<path d="M1435 2634 c-50 -18 -79 -46 -105 -100 -19 -38 -20 -46 -7 -76 25
-59 65 -97 120 -113 75 -22 2047 -23 2123 0 56 16 96 52 119 108 15 35 14 41
-3 80 -24 53 -56 82 -111 102 -64 22 -2074 22 -2136 -1z"/>
</g>
</svg>
