<?xml version="1.0" standalone="no"?>
<!DOCTYPE svg PUBLIC "-//W3C//DTD SVG 20010904//EN"
 "http://www.w3.org/TR/2001/REC-SVG-20010904/DTD/svg10.dtd">
<svg version="1.0" xmlns="http://www.w3.org/2000/svg"
 width="503.000000pt" height="496.000000pt" viewBox="0 0 503.000000 496.000000"
 preserveAspectRatio="xMidYMid meet">
<metadata>
Created by potrace 1.16, written by Peter Selinger 2001-2019
</metadata>
<g transform="translate(0.000000,496.000000) scale(0.100000,-0.100000)"
fill="#000000" stroke="none">
<path d="M2502 4933 c-2 -32 -4 -33 -43 -33 -43 0 -154 -22 -234 -47 -69 -21
-237 -102 -313 -150 -100 -64 -244 -203 -316 -307 -244 -350 -303 -678 -196
-1098 60 -232 155 -428 332 -678 59 -83 232 -245 334 -312 189 -125 271 -152
454 -152 163 1 234 22 400 122 425 255 738 813 757 1352 7 196 -25 368 -102
535 -36 80 -166 282 -212 330 -136 142 -256 227 -441 310 -108 49 -284 95
-364 95 -45 0 -47 1 -51 33 l-4 32 -1 -32z"/>
<path d="M1465 2154 c-33 -14 -95 -39 -137 -54 -219 -83 -580 -252 -708 -332
-261 -163 -354 -243 -401 -343 -54 -114 -159 -454 -159 -515 0 -14 -9 -20 -32
-23 l-33 -4 33 -1 c18 -1 32 -7 32 -14 0 -7 13 -41 30 -76 100 -212 456 -420
935 -547 385 -102 824 -167 1228 -182 l187 -6 0 -29 0 -28 90 0 90 0 0 28 0
29 188 6 c327 12 602 46 913 113 420 90 728 203 947 347 166 109 262 212 294
316 11 35 17 41 40 41 16 0 28 5 28 10 0 6 -13 10 -29 10 -26 0 -29 3 -35 48
-19 144 -135 462 -201 550 -49 67 -156 155 -254 209 -36 20 -78 44 -92 54 -44
30 -462 236 -576 283 -142 59 -340 136 -351 136 -5 0 -21 -14 -38 -31 -81 -86
-271 -221 -381 -271 -200 -90 -332 -113 -608 -105 -244 8 -347 29 -508 106
-113 54 -323 204 -391 280 -24 26 -28 26 -101 -5z"/>
</g>
</svg>
