<?xml version="1.0" standalone="no"?>
<!DOCTYPE svg PUBLIC "-//W3C//DTD SVG 20010904//EN"
 "http://www.w3.org/TR/2001/REC-SVG-20010904/DTD/svg10.dtd">
<svg version="1.0" xmlns="http://www.w3.org/2000/svg"
 width="690.000000pt" height="362.000000pt" viewBox="0 0 690.000000 362.000000"
 preserveAspectRatio="xMidYMid meet">
<metadata>
Created by potrace 1.16, written by Peter Selinger 2001-2019
</metadata>
<g transform="translate(0.000000,362.000000) scale(0.100000,-0.100000)"
fill="#000000" stroke="none">
<path d="M3291 3499 c-253 -24 -540 -130 -766 -283 -416 -281 -688 -714 -759
-1209 -42 -288 9 -596 149 -892 65 -139 119 -226 211 -340 306 -383 730 -614
1200 -656 351 -32 735 73 1049 285 416 281 688 714 759 1209 42 288 -9 596
-149 892 -65 139 -119 226 -211 340 -216 270 -483 462 -794 568 -243 83 -449
109 -689 86z m534 -242 c185 -47 312 -102 475 -208 150 -97 340 -297 432 -454
90 -152 167 -373 188 -538 13 -101 13 -393 0 -494 -21 -165 -98 -386 -188
-538 -92 -157 -282 -357 -432 -454 -163 -106 -303 -166 -490 -212 -87 -22
-116 -24 -360 -24 -244 0 -273 2 -360 24 -187 46 -327 106 -490 212 -150 97
-340 297 -432 454 -90 152 -167 373 -188 538 -13 101 -13 393 0 494 21 165 98
386 188 538 92 157 282 357 432 454 167 109 314 172 490 210 136 30 132 29
395 26 217 -3 250 -5 340 -28z"/>
<path d="M3413 2849 c-17 -11 -41 -39 -52 -63 -20 -41 -21 -59 -21 -454 l0
-411 -427 -3 -428 -3 -31 -23 c-16 -13 -38 -36 -48 -53 -16 -28 -16 -30 0 -58
10 -17 32 -40 48 -53 l31 -23 428 -3 427 -3 0 -411 c0 -396 1 -413 21 -454 11
-25 35 -53 55 -64 l34 -22 34 22 c20 11 44 39 55 64 20 41 21 58 21 454 l0
411 428 3 427 3 31 23 c16 13 38 36 48 53 16 28 16 30 0 58 -10 17 -32 40 -48
53 l-31 23 -427 3 -428 3 0 411 c0 396 -1 413 -21 454 -11 24 -35 52 -53 64
-40 24 -34 24 -73 -1z"/>
</g>
</svg>
