<?xml version="1.0" standalone="no"?>
<!DOCTYPE svg PUBLIC "-//W3C//DTD SVG 20010904//EN"
 "http://www.w3.org/TR/2001/REC-SVG-20010904/DTD/svg10.dtd">
<svg version="1.0" xmlns="http://www.w3.org/2000/svg"
 width="499.000000pt" height="500.000000pt" viewBox="0 0 499.000000 500.000000"
 preserveAspectRatio="xMidYMid meet">

<g transform="translate(0.000000,500.000000) scale(0.100000,-0.100000)"
fill="#000000" stroke="none">
<path d="M2255 4985 c-212 -19 -409 -64 -620 -142 -98 -36 -244 -99 -285 -124
-8 -4 -41 -22 -73 -39 -32 -17 -64 -35 -70 -40 -19 -16 -87 -60 -93 -60 -3 0
-10 -5 -17 -10 -38 -32 -91 -70 -97 -70 -4 0 -18 -10 -31 -23 -13 -12 -46 -40
-74 -62 -65 -52 -249 -235 -305 -305 -25 -30 -48 -56 -52 -58 -5 -2 -8 -10 -8
-17 0 -8 -6 -18 -13 -22 -14 -9 -90 -110 -100 -133 -4 -8 -27 -46 -51 -85 -70
-109 -158 -291 -214 -445 -197 -540 -197 -1160 0 -1700 55 -152 144 -336 214
-445 24 -38 47 -77 51 -85 10 -23 86 -124 100 -133 7 -4 13 -14 13 -22 0 -7 3
-15 8 -17 4 -2 27 -28 52 -58 56 -70 240 -253 305 -305 28 -22 61 -50 74 -62
13 -13 27 -23 31 -23 6 0 59 -38 97 -70 7 -5 14 -10 17 -10 6 0 74 -44 93 -60
6 -5 38 -23 70 -40 32 -17 65 -35 73 -39 23 -14 160 -76 210 -96 25 -9 56 -22
70 -27 293 -116 692 -173 1031 -149 247 18 508 74 699 149 14 5 45 18 70 27
50 20 187 82 210 96 8 4 41 22 73 39 32 17 64 35 70 40 19 16 87 60 93 60 3 0
10 5 17 10 38 32 91 70 97 70 4 0 18 10 31 23 13 12 47 40 74 62 65 52 249
235 306 305 24 30 47 56 52 58 4 2 7 10 7 17 0 8 6 18 13 22 14 9 90 110 100
133 4 8 27 47 51 85 70 109 158 291 214 445 182 498 197 1077 40 1580 -62 199
-162 422 -254 565 -24 39 -47 77 -51 85 -10 23 -86 124 -100 133 -7 4 -13 14
-13 22 0 7 -3 15 -7 17 -5 2 -28 28 -53 58 -61 75 -222 236 -297 298 -34 28
-72 60 -84 71 -13 12 -26 21 -30 21 -5 0 -59 39 -96 70 -7 5 -14 10 -17 10 -6
0 -74 44 -93 60 -6 5 -38 23 -70 40 -32 17 -65 35 -73 39 -101 60 -399 171
-545 205 -174 40 -230 49 -375 62 -185 16 -278 16 -465 -1z m505 -236 c241
-26 482 -98 720 -212 58 -28 112 -56 120 -62 8 -7 35 -23 60 -36 102 -54 299
-208 415 -324 66 -66 129 -131 140 -145 76 -94 185 -245 185 -257 0 -3 8 -15
17 -25 26 -29 137 -246 169 -329 119 -318 170 -577 168 -869 -1 -285 -52 -540
-168 -849 -34 -90 -141 -298 -170 -330 -9 -10 -16 -20 -16 -24 0 -11 -75 -117
-148 -208 -74 -93 -253 -279 -269 -279 -6 0 -19 12 -29 26 -10 15 -38 50 -61
80 -24 29 -43 57 -43 62 0 6 -5 12 -10 14 -6 2 -32 33 -58 69 -26 36 -114 155
-197 264 -82 109 -154 205 -160 214 -5 9 -12 18 -15 21 -9 8 -154 200 -172
227 -9 15 -26 38 -38 52 -24 30 -155 203 -185 245 -11 16 -48 65 -82 110 -92
120 -247 326 -258 345 -5 8 -15 20 -21 26 -6 5 -22 26 -35 45 -13 19 -49 69
-81 110 -86 111 -90 115 -178 235 -44 61 -89 120 -100 131 -11 12 -20 26 -20
32 0 6 -3 12 -7 14 -5 2 -42 48 -83 103 -41 55 -78 102 -82 103 -5 2 -8 9 -8
14 0 6 -7 18 -16 27 -16 17 -288 376 -372 491 -26 36 -85 115 -132 177 -47 61
-119 157 -160 213 -41 55 -83 110 -92 122 -10 11 -18 24 -18 28 0 5 24 20 53
35 28 15 59 33 67 39 21 17 214 109 282 135 209 79 383 122 568 140 63 6 131
13 150 15 52 6 261 -2 370 -15z m-1594 -630 c54 -72 104 -138 109 -146 6 -9
18 -25 27 -37 44 -53 141 -185 165 -221 14 -22 29 -42 33 -45 4 -3 44 -54 89
-115 45 -60 90 -120 101 -131 11 -12 20 -25 20 -28 0 -3 7 -14 14 -23 25 -30
170 -220 186 -243 8 -12 82 -110 164 -218 81 -108 169 -226 195 -261 25 -35
79 -105 119 -157 39 -51 72 -95 72 -98 0 -3 7 -14 16 -23 17 -20 160 -208 184
-243 8 -12 40 -54 70 -94 31 -39 84 -109 118 -156 52 -72 160 -215 232 -310
114 -149 156 -204 225 -295 44 -59 85 -114 90 -123 6 -10 16 -21 23 -25 6 -4
12 -12 12 -17 0 -6 7 -18 15 -27 8 -10 44 -56 79 -103 36 -47 70 -90 76 -97 5
-7 10 -17 10 -22 0 -6 6 -14 13 -18 7 -4 27 -28 45 -53 17 -25 49 -67 71 -95
23 -27 41 -52 41 -55 0 -7 -65 -49 -120 -78 -25 -14 -52 -30 -60 -36 -58 -47
-367 -174 -505 -210 -233 -59 -389 -80 -600 -80 -350 0 -663 72 -985 227 -58
28 -112 56 -120 62 -8 7 -35 23 -60 36 -147 78 -447 335 -567 484 -77 97 -173
230 -173 242 0 3 -8 15 -17 25 -26 29 -137 246 -169 329 -117 311 -167 566
-168 854 -1 290 50 551 168 864 32 84 143 300 169 329 9 10 17 21 17 25 0 11
75 117 151 212 67 85 302 325 318 325 5 0 53 -59 107 -131z"/>
</g>
</svg>
